<?xml version="1.0" encoding="iso-8859-1"?>
<!-- Generator: Adobe Illustrator 19.0.0, SVG Export Plug-In . SVG Version: 6.00 Build 0)  -->
<svg version="1.1" id="Capa_1" xmlns="http://www.w3.org/2000/svg" xmlns:xlink="http://www.w3.org/1999/xlink" x="0px" y="0px"
	 viewBox="0 0 512 512" style="enable-background:new 0 0 512 512;" xml:space="preserve">
<path style="fill:#D5011D;" d="M502.968,384.51C453.94,363.25,421,313.041,421,259.571L421.008,0H331v289.57
	c0,49.725,15.841,96.899,45.81,136.423c28.989,38.232,70.161,66.751,115.932,80.304L512,512V388.427L502.968,384.51z"/>
<path style="fill:#FF0021;" d="M91,259.57c0,53.471-32.94,103.68-81.968,124.94L0,388.427V512l19.259-5.703
	c45.771-13.553,86.942-42.072,115.932-80.304C165.159,386.469,181,339.294,181,289.57V0H90.992L91,259.57z"/>
<polygon style="fill:#D5011D;" points="256,0 236,256 256,512 301,512 301,0 "/>
<rect x="211" style="fill:#FF0021;" width="45" height="512"/>
<g>
</g>
<g>
</g>
<g>
</g>
<g>
</g>
<g>
</g>
<g>
</g>
<g>
</g>
<g>
</g>
<g>
</g>
<g>
</g>
<g>
</g>
<g>
</g>
<g>
</g>
<g>
</g>
<g>
</g>
</svg>
