<?xml version="1.0" encoding="iso-8859-1"?>
<!-- Generator: Adobe Illustrator 19.0.0, SVG Export Plug-In . SVG Version: 6.00 Build 0)  -->
<svg version="1.1" id="Capa_1" xmlns="http://www.w3.org/2000/svg" xmlns:xlink="http://www.w3.org/1999/xlink" x="0px" y="0px"
	 viewBox="0 0 512 512" style="enable-background:new 0 0 512 512;" xml:space="preserve">
<path style="fill:#EBBA16;" d="M423.724,423.724c-45.153,48.852-104.783,79.448-176.552,79.448C110.663,503.172,0,392.51,0,256
	S110.663,8.828,247.172,8.828c69.164,0,131.69,33.668,176.552,79.448L247.172,256L423.724,423.724z"/>
<g>
	<path style="fill:#B79021;" d="M114.767,97.103c-2.631,0-5.226-1.165-6.965-3.399c-3.001-3.849-2.313-9.393,1.527-12.394
		c37.455-29.219,87.693-45.992,137.843-46.001c4.873,0,8.828,3.946,8.828,8.828s-3.955,8.828-8.828,8.828
		c-46.292,0.009-92.575,15.422-126.985,42.275C118.572,96.494,116.665,97.103,114.767,97.103z"/>
	<path style="fill:#B79021;" d="M35.31,264.828L35.31,264.828c-4.873,0-8.828-3.955-8.828-8.828
		c0.009-53.045,15.951-100.758,46.106-137.966c3.072-3.796,8.633-4.37,12.412-1.298c3.787,3.072,4.37,8.625,1.306,12.412
		C58.73,163.178,44.147,207.051,44.138,256C44.138,260.873,40.183,264.828,35.31,264.828z"/>
</g>
<circle style="fill:#FFFFFF;" cx="247.172" cy="123.586" r="26.483"/>
<g>
	<circle style="fill:#F7E6A1;" cx="370.759" cy="256" r="26.483"/>
	<circle style="fill:#F7E6A1;" cx="485.517" cy="256" r="26.483"/>
</g>
<g>
</g>
<g>
</g>
<g>
</g>
<g>
</g>
<g>
</g>
<g>
</g>
<g>
</g>
<g>
</g>
<g>
</g>
<g>
</g>
<g>
</g>
<g>
</g>
<g>
</g>
<g>
</g>
<g>
</g>
</svg>
