<?xml version="1.0" encoding="iso-8859-1"?>
<!-- Generator: Adobe Illustrator 16.0.0, SVG Export Plug-In . SVG Version: 6.00 Build 0)  -->
<!DOCTYPE svg PUBLIC "-//W3C//DTD SVG 1.1//EN" "http://www.w3.org/Graphics/SVG/1.1/DTD/svg11.dtd">
<svg version="1.1" id="Capa_1" xmlns="http://www.w3.org/2000/svg" xmlns:xlink="http://www.w3.org/1999/xlink" x="0px" y="0px"
	 width="437px" height="437px" viewBox="0 0 437 437" style="enable-background:new 0 0 437 437;" xml:space="preserve">
<g>
	<g>
		<g>
			<path d="M128.489,303.501H308.51c16.783,0-14.159-73.667-14.159-73.667c-1.833-4.383-6.241-7.193-10.456-8.92l-28.467-13.107
				l-13.677-11.532l-21.976,21.856h-0.017l9.482,63.396c0.031,0.22-0.021,0.439-0.152,0.619l-9.914,13.57
				c-0.16,0.217-0.411,0.344-0.68,0.344c-0.268,0-0.519-0.127-0.676-0.344l-9.917-13.57c-0.13-0.18-0.185-0.399-0.15-0.619
				l9.481-63.396h-0.015l-21.974-21.856l-13.677,11.532L153.1,220.914c-4.211,1.727-8.351,4.352-10.457,8.92
				C142.647,229.834,111.706,303.501,128.489,303.501z"/>
			<path d="M218.5,202.135c21.713,0,50.841-27.127,51.335-72.615c0.315-31.566-14.718-50.456-51.335-50.456
				c-36.618,0-51.656,18.89-51.335,50.456C167.658,175.008,193.088,202.135,218.5,202.135z M208.18,142.197
				c26.547,2.827,49.694-34.302,49.318-1.058c-0.225,19.899-18.684,49.95-38.994,49.95c-21.317,0-36.028-24.975-38.996-49.939
				C176.291,114.075,225.986,120.245,208.18,142.197z"/>
			<path d="M417,29.59H20c-11.046,0-20,8.954-20,20v283.385c0,11.047,8.954,20,20,20h397c11.046,0,20-8.953,20-20V49.59
				C437,38.544,428.046,29.59,417,29.59z M407,322.975H30V59.59h377V322.975z"/>
			<path d="M0,384.782c0,6.102,4.946,11.049,11.047,11.049h106.366v-22.097H11.047C4.946,373.734,0,378.681,0,384.782z"/>
			<path d="M425.952,373.734H160.153v22.098h265.799c6.102,0,11.048-4.947,11.048-11.049
				C437,378.68,432.054,373.734,425.952,373.734z"/>
			<path d="M138.786,362.154c-7.326,0-13.286,5.961-13.286,13.286v18.683c0,7.326,5.96,13.287,13.286,13.287
				c7.325,0,13.284-5.961,13.284-13.287V375.44C152.07,368.115,146.111,362.154,138.786,362.154z"/>
		</g>
	</g>
</g>
<g>
</g>
<g>
</g>
<g>
</g>
<g>
</g>
<g>
</g>
<g>
</g>
<g>
</g>
<g>
</g>
<g>
</g>
<g>
</g>
<g>
</g>
<g>
</g>
<g>
</g>
<g>
</g>
<g>
</g>
</svg>
